HIERARCHY
ROOT Hips
{
	OFFSET 0.000000 0.000000 0.000000
	CHANNELS 6 Xposition Yposition Zposition Xrotation Yrotation Zrotation
	JOINT LeftUpLeg_virtual
	{
		OFFSET 0.000000 0.000000 0.000000
		CHANNELS 3 Xrotation Yrotation Zrotation
		JOINT LeftUpLeg
		{
			OFFSET 10.205400 -3.823500 0.155100
			CHANNELS 3 Xrotation Yrotation Zrotation
			JOINT LeftLeg
			{
				OFFSET 0.708757 -12.982077 0.567790
				CHANNELS 3 Xrotation Yrotation Zrotation
				JOINT LeftFoot
				{
					OFFSET -0.708756 -10.717838 -2.184338
					CHANNELS 3 Xrotation Yrotation Zrotation
					JOINT LeftToeBase
					{
						OFFSET 0.108149 -7.191104 7.560241
						CHANNELS 3 Xrotation Yrotation Zrotation
						JOINT LeftToe_End
						{
							OFFSET 0.070230 0.081724 4.490308
							CHANNELS 3 Xrotation Yrotation Zrotation
							End Site
							{
								OFFSET 0 0 0
							}
						}
					}
				}
			}
		}
	}
	JOINT RightUpLeg_virtual
	{
		OFFSET 0.000000 0.000000 0.000000
		CHANNELS 3 Xrotation Yrotation Zrotation
		JOINT RightUpLeg
		{
			OFFSET -10.205400 -3.823500 0.005500
			CHANNELS 3 Xrotation Yrotation Zrotation
			JOINT RightLeg
			{
				OFFSET -0.708756 -12.982134 0.610632
				CHANNELS 3 Xrotation Yrotation Zrotation
				JOINT RightFoot
				{
					OFFSET 0.708754 -10.717769 -1.945823
					CHANNELS 3 Xrotation Yrotation Zrotation
					JOINT RightToeBase
					{
						OFFSET -0.108140 -7.191069 7.372968
						CHANNELS 3 Xrotation Yrotation Zrotation
						JOINT RightToe_End
						{
							OFFSET -0.070227 0.081735 4.479403
							CHANNELS 3 Xrotation Yrotation Zrotation
							End Site
							{
								OFFSET 0 0 0
							}
						}
					}
				}
			}
		}
	}
	JOINT Spine_virtual
	{
		OFFSET 0.000000 0.000000 0.000000
		CHANNELS 3 Xrotation Yrotation Zrotation
		JOINT Spine
		{
			OFFSET 0.000000 6.876099 0.125700
			CHANNELS 3 Xrotation Yrotation Zrotation
			JOINT Spine1
			{
				OFFSET 0.000000 5.730043 0.104720
				CHANNELS 3 Xrotation Yrotation Zrotation
				JOINT Spine1_split
				{
					OFFSET 0.000000 5.730043 0.104720
					CHANNELS 3 Xrotation Yrotation Zrotation
					JOINT Spine2
					{
						OFFSET 0.000000 5.730043 0.104720
						CHANNELS 3 Xrotation Yrotation Zrotation
						JOINT Neck_virtual
						{
							OFFSET 0.000000 0.000000 0.000000
							CHANNELS 3 Xrotation Yrotation Zrotation
							JOINT Neck
							{
								OFFSET 0.000000 10.314075 0.188496
								CHANNELS 3 Xrotation Yrotation Zrotation
								JOINT Head
								{
									OFFSET 0.000000 7.643700 -2.377400
									CHANNELS 3 Xrotation Yrotation Zrotation
									JOINT HeadTop_End
									{
										OFFSET 0.000000 43.788605 -13.619600
										CHANNELS 3 Xrotation Yrotation Zrotation
										End Site
										{
											OFFSET 0 0 0
										}
									}
								}
							}
						}
						JOINT LeftShoulder_virtual
						{
							OFFSET 0.000000 0.000000 0.000000
							CHANNELS 3 Xrotation Yrotation Zrotation
							JOINT LeftShoulder
							{
								OFFSET 2.196100 4.412489 0.087492
								CHANNELS 3 Xrotation Yrotation Zrotation
								JOINT LeftShoulder_split
								{
									OFFSET 2.196100 4.412489 0.087492
									CHANNELS 3 Xrotation Yrotation Zrotation
									JOINT LeftArm
									{
										OFFSET 8.771219 -2.981674 -0.026999
										CHANNELS 3 Xrotation Yrotation Zrotation
										JOINT LeftForeArm
										{
											OFFSET 8.512804 0.000000 -0.000000
											CHANNELS 3 Xrotation Yrotation Zrotation
											JOINT LeftHand
											{
												OFFSET 18.484802 0.000000 -0.000000
												CHANNELS 3 Xrotation Yrotation Zrotation
												End Site
												{
													OFFSET 0 0 0
												}
											}
										}
									}
								}
							}
						}
						JOINT RightShoulder_virtual
						{
							OFFSET 0.000000 0.000000 0.000000
							CHANNELS 3 Xrotation Yrotation Zrotation
							JOINT RightShoulder
							{
								OFFSET -2.196100 4.412496 0.070690
								CHANNELS 3 Xrotation Yrotation Zrotation
								JOINT RightShoulder_split
								{
									OFFSET -2.196100 4.412496 0.070690
									CHANNELS 3 Xrotation Yrotation Zrotation
									JOINT RightArm
									{
										OFFSET -8.771282 -2.981682 -0.094208
										CHANNELS 3 Xrotation Yrotation Zrotation
										JOINT RightForeArm
										{
											OFFSET -8.494598 0.000000 0.000000
											CHANNELS 3 Xrotation Yrotation Zrotation
											JOINT RightHand
											{
												OFFSET -18.483803 0.000000 0.000001
												CHANNELS 3 Xrotation Yrotation Zrotation
												End Site
												{
													OFFSET 0 0 0
												}
											}
										}
									}
								}
							}
						}
					}
				}
			}
		}
	}
}
MOTION
Frames: 4
Frame Time: 0.03333333
-13.640955 18.582966 115.884773 0.000000 0.000000 0.000000 -172.336178 15.472042 -179.714694 -83.716147 -3.428432 35.425616 103.390930 -8.622440 -4.749192 -8.728323 -8.831339 10.573483 -5.455622 0.311726 -0.985112 0.000000 0.000000 0.000000 -172.422566 14.819076 179.536194 -86.350441 14.371307 -27.437654 109.086474 5.932246 5.229451 -17.844943 4.052395 -5.234008 4.966644 2.948553 2.166516 0.000000 0.000000 0.000000 -172.317367 17.127905 -178.079820 18.427926 -3.393722 -7.622912 3.992076 -0.227065 -2.611544 0.842773 -0.332706 0.438475 0.000000 0.000000 0.000000 4.610031 -0.741488 -1.817537 -1.671192 -0.110687 -1.076405 -20.296366 0.258081 7.780235 0.000000 0.000000 0.000000 3.875962 -0.523009 -2.399318 0.981525 -2.820614 -11.262650 -3.241867 0.028376 1.467830 -15.275008 -40.344917 -44.400355 0.356165 -58.460757 0.861411 0.000000 0.000000 0.000000 4.920614 -0.606373 -1.872230 -2.668326 18.987829 -1.595860 -1.428458 0.800124 0.582716 -25.655459 26.282672 30.571442 -179.997519 69.042605 179.653004 0.000000 0.000000 0.000000 
-13.635363 18.582970 115.874207 0.000000 0.000000 0.000000 -172.375492 15.515200 -179.751454 -83.746951 -3.509972 35.398668 103.467455 -8.643014 -4.750754 -8.706557 -8.817572 10.627143 -5.465590 0.312591 -1.016130 0.000000 0.000000 0.000000 -172.468929 14.831664 179.508095 -86.411879 14.281549 -27.457333 109.083708 5.932613 5.257346 -17.829710 4.018073 -5.258896 5.007053 2.938204 2.167473 0.000000 0.000000 0.000000 -172.364728 17.150475 -178.085448 18.347760 -3.339459 -7.657083 3.964058 -0.213579 -2.616186 0.842437 -0.340997 0.443083 0.000000 0.000000 0.000000 4.581565 -0.712409 -1.846737 -1.651747 -0.245358 -1.009421 -21.050057 0.105764 7.868307 0.000000 0.000000 0.000000 3.893367 -0.512709 -2.410221 0.963913 -2.817355 -11.266098 -3.437791 0.129130 1.395752 -15.226010 -40.462485 -44.342066 0.425338 -58.321619 0.930215 0.000000 0.000000 0.000000 4.908906 -0.583243 -1.895119 -2.989623 18.156665 -2.495443 -1.352738 0.760256 0.593878 -27.317903 26.534689 31.091151 179.738982 68.178914 -179.956196 0.000000 0.000000 0.000000 
-13.630963 18.583437 115.867096 0.000000 0.000000 0.000000 -172.414083 15.574126 -179.802585 -83.784763 -3.590160 35.365832 103.531154 -8.658175 -4.733930 -8.675120 -8.797591 10.665721 -5.477621 0.311937 -1.046544 0.000000 0.000000 0.000000 -172.512916 14.865982 179.464259 -86.469478 14.182697 -27.480855 109.087437 5.928578 5.283435 -17.797513 3.973450 -5.275846 5.040453 2.928964 2.165493 0.000000 0.000000 0.000000 -172.409083 17.196314 -178.113316 18.264286 -3.297987 -7.673448 3.943428 -0.210680 -2.612454 0.842037 -0.359110 0.447898 0.000000 0.000000 0.000000 4.561632 -0.690675 -1.867421 -1.643798 -0.372387 -0.952253 -21.756453 -0.070408 7.948680 0.000000 0.000000 0.000000 3.931690 -0.516776 -2.408737 0.943372 -2.839372 -11.317625 -3.626188 0.191232 1.353600 -15.112248 -40.566925 -44.278959 0.475226 -58.236734 0.958317 0.000000 0.000000 0.000000 4.903466 -0.572437 -1.906701 -3.266469 17.452438 -3.196735 -1.240421 0.706726 0.563272 -28.814816 26.814126 31.419512 179.595712 67.610328 -179.687428 0.000000 0.000000 0.000000 
-13.629311 18.585268 115.862793 0.000000 0.000000 0.000000 -172.453452 15.652948 -179.862377 -83.831071 -3.662201 35.323317 103.572927 -8.669360 -4.700998 -8.627112 -8.776687 10.679915 -5.502030 0.308205 -1.068851 0.000000 0.000000 0.000000 -172.554675 14.929042 179.407568 -86.515670 14.080278 -27.508201 109.089172 5.916730 5.308723 -17.766022 3.920665 -5.296465 5.079282 2.920604 2.164539 0.000000 0.000000 0.000000 -172.449149 17.264541 -178.165006 18.176858 -3.267839 -7.672755 3.931122 -0.216958 -2.600372 0.862969 -0.377625 0.442870 0.000000 0.000000 0.000000 4.550287 -0.677043 -1.877099 -1.640513 -0.491585 -0.909373 -22.419695 -0.265495 8.014325 0.000000 0.000000 0.000000 3.980757 -0.530514 -2.395052 0.921078 -2.885712 -11.399692 -3.831745 0.215094 1.351634 -14.944732 -40.649663 -44.198451 0.478031 -58.183622 0.929755 0.000000 0.000000 0.000000 4.899793 -0.572448 -1.906429 -3.501590 16.850136 -3.742257 -1.108780 0.618122 0.509909 -30.174181 27.128470 31.597179 179.542642 67.173442 -179.523995 0.000000 0.000000 0.000000 
